<svg width="67" height="71" viewBox="0 0 67 71" fill="none" xmlns="http://www.w3.org/2000/svg">
<path d="M33.436 68.176C39.61 68.176 45.196 66.804 49.9 64.256L55.584 70.626L63.522 63.962L58.132 57.886C63.62 51.908 66.854 43.774 66.854 34.366C66.854 14.864 53.036 0.555997 33.436 0.555997C13.836 0.555997 0.0180001 14.864 0.0180001 34.366C0.0180001 53.868 13.836 68.176 33.436 68.176ZM33.436 57.984C20.206 57.984 11.778 47.792 11.778 34.366C11.778 20.842 20.206 10.748 33.436 10.748C46.568 10.748 55.094 20.842 55.094 34.366C55.094 40.148 53.526 45.44 50.586 49.458L42.55 40.246L34.612 46.812L42.648 56.024C39.904 57.298 36.866 57.984 33.436 57.984Z" fill="white"/>
</svg>
